<svg width="96" height="96" viewBox="0 0 96 96" fill="none" xmlns="http://www.w3.org/2000/svg">
<rect x="2" y="2" width="92" height="73" stroke="#5335AB"/>
<rect width="4" height="4" fill="white"/>
<rect x="92" width="4" height="4" fill="white"/>
<rect y="30" width="4" height="4" fill="white"/>
<line x1="48.2211" y1="81.7931" x2="48.2211" y2="76" stroke="black" stroke-width="0.8" stroke-dasharray="2 2"/>
<g filter="url(#filter0_d_1_2189)">
<circle cx="48.5" cy="85.0519" r="3.5" fill="white"/>
</g>
<path d="M50.782 83.5904V84.5861C50.782 84.6301 50.7645 84.6723 50.7334 84.7034C50.7023 84.7346 50.6601 84.752 50.6161 84.752H49.6204C49.5877 84.752 49.5558 84.7423 49.5286 84.7242C49.5014 84.7061 49.4802 84.6804 49.4676 84.6502C49.455 84.6201 49.4515 84.587 49.4577 84.5549C49.4638 84.5228 49.4793 84.4933 49.5021 84.4699L49.8838 84.0883L49.7946 83.9991C49.5625 83.7672 49.2668 83.6093 48.9449 83.5454C48.623 83.4815 48.2895 83.5145 47.9863 83.6402C47.6832 83.7658 47.4242 83.9785 47.2419 84.2514C47.0596 84.5242 46.9623 84.845 46.9623 85.1731C46.9623 85.5013 47.0596 85.8221 47.2419 86.0949C47.4242 86.3678 47.6832 86.5805 47.9863 86.7061C48.2895 86.8318 48.623 86.8648 48.9449 86.8009C49.2668 86.737 49.5625 86.5791 49.7946 86.3472C49.8099 86.3316 49.8281 86.3192 49.8482 86.3107C49.8684 86.3023 49.89 86.2979 49.9118 86.2979C49.9336 86.2979 49.9553 86.3023 49.9754 86.3107C49.9955 86.3192 50.0137 86.3316 50.029 86.3472C50.06 86.3783 50.0775 86.4205 50.0775 86.4644C50.0775 86.5084 50.06 86.5505 50.029 86.5816C49.7505 86.86 49.3956 87.0496 49.0094 87.1263C48.6231 87.2031 48.2228 87.1636 47.859 87.0128C47.4951 86.8621 47.1842 86.6068 46.9654 86.2794C46.7466 85.9519 46.6299 85.567 46.6299 85.1731C46.6299 84.7793 46.7466 84.3944 46.9654 84.0669C47.1842 83.7394 47.4951 83.4842 47.859 83.3334C48.2228 83.1827 48.6231 83.1432 49.0094 83.22C49.3956 83.2967 49.7505 83.4863 50.029 83.7647L50.1182 83.8539L50.4978 83.4742C50.5208 83.4509 50.5503 83.4349 50.5824 83.4282C50.6145 83.4216 50.6479 83.4246 50.6783 83.4369C50.7086 83.4497 50.7345 83.4711 50.7529 83.4983C50.7713 83.5255 50.7814 83.5575 50.782 83.5904Z" fill="black"/>
<rect x="46" y="73" width="4" height="4" fill="white"/>
<rect y="73" width="4" height="4" fill="white"/>
<rect x="46" width="4" height="4" fill="white"/>
<rect x="92" y="73" width="4" height="4" fill="white"/>
<defs>
<filter id="filter0_d_1_2189" x="40" y="78.5519" width="17" height="17" filterUnits="userSpaceOnUse" color-interpolation-filters="sRGB">
<feFlood flood-opacity="0" result="BackgroundImageFix"/>
<feColorMatrix in="SourceAlpha" type="matrix" values="0 0 0 0 0 0 0 0 0 0 0 0 0 0 0 0 0 0 127 0" result="hardAlpha"/>
<feMorphology radius="3" operator="erode" in="SourceAlpha" result="effect1_dropShadow_1_2189"/>
<feOffset dy="2"/>
<feGaussianBlur stdDeviation="4"/>
<feComposite in2="hardAlpha" operator="out"/>
<feColorMatrix type="matrix" values="0 0 0 0 0.112063 0 0 0 0 0 0 0 0 0 0.187384 0 0 0 0.52 0"/>
<feBlend mode="normal" in2="BackgroundImageFix" result="effect1_dropShadow_1_2189"/>
<feBlend mode="normal" in="SourceGraphic" in2="effect1_dropShadow_1_2189" result="shape"/>
</filter>
</defs>
</svg>
