<svg width="226" height="56" viewBox="0 0 226 56" fill="none" xmlns="http://www.w3.org/2000/svg">
<rect width="226" height="46" fill="white"/>
<rect opacity="0.1" x="18" y="5" width="35" height="36" rx="6" fill="#A586FF"/>
<path d="M37.1 24.95H40.35L41.65 19.75H37.1V17.15C37.1 15.811 37.1 14.55 39.7 14.55H41.65V10.182C41.2262 10.1261 39.6259 10 37.9359 10C34.4064 10 31.9 12.1541 31.9 16.11V19.75H28V24.95H31.9V36H37.1V24.95Z" fill="#A586FF"/>
<g filter="url(#filter0_d_1_2137)">
<path d="M46.5855 40.8464L51.3507 39.6809C51.894 39.5508 52.023 38.7803 51.5272 38.4849L39.1065 30.623C38.6468 30.3057 38.0159 30.753 38.1536 31.3276L41.7608 46.382C41.8916 46.9277 42.6247 47.0913 42.9296 46.5782L45.2718 41.8946C45.5345 41.3692 46.0149 40.9859 46.5855 40.8464Z" fill="black"/>
</g>
<path opacity="0.14" d="M197.976 13.0865C196.779 13.6163 195.509 13.9642 194.208 14.1187C195.579 13.299 196.605 12.0088 197.095 10.4886C195.808 11.2542 194.398 11.7907 192.928 12.0809C191.941 11.0245 190.632 10.3238 189.205 10.0879C187.779 9.852 186.314 10.094 185.039 10.7764C183.764 11.4588 182.75 12.5432 182.155 13.8611C181.56 15.1791 181.418 16.6567 181.749 18.0642C179.14 17.9335 176.588 17.2556 174.259 16.0745C171.929 14.8934 169.874 13.2356 168.226 11.2087C167.643 12.2103 167.337 13.3488 167.338 14.5078C167.338 16.7825 168.496 18.7921 170.256 19.9687C169.214 19.9359 168.196 19.6546 167.285 19.1483V19.2298C167.285 20.7448 167.809 22.213 168.769 23.3856C169.728 24.5582 171.063 25.3629 172.548 25.6634C171.581 25.9255 170.567 25.964 169.583 25.7763C170.002 27.0804 170.818 28.2207 171.917 29.0381C173.016 29.8552 174.343 30.3081 175.712 30.3336C174.351 31.4025 172.793 32.1926 171.127 32.6588C169.46 33.125 167.718 33.2582 166 33.0507C168.999 34.9795 172.49 36.0034 176.056 36C188.124 36 194.724 26.0023 194.724 17.3316C194.724 17.0492 194.716 16.7637 194.704 16.4845C195.989 15.556 197.097 14.4059 197.978 13.0881L197.976 13.0865Z" fill="black"/>
<path opacity="0.14" d="M110.942 14.498C110.633 14.498 110.332 14.5895 110.075 14.7609C109.819 14.9323 109.619 15.176 109.501 15.461C109.383 15.7461 109.352 16.0597 109.412 16.3623C109.472 16.665 109.621 16.9429 109.839 17.1611C110.057 17.3793 110.335 17.5278 110.638 17.588C110.94 17.6482 111.254 17.6173 111.539 17.4993C111.824 17.3812 112.068 17.1812 112.239 16.9247C112.411 16.6681 112.502 16.3665 112.502 16.058C112.502 15.6443 112.338 15.2475 112.045 14.9549C111.753 14.6624 111.356 14.498 110.942 14.498ZM116.922 17.644C116.897 16.5654 116.695 15.4982 116.324 14.485C115.993 13.6181 115.479 12.8331 114.816 12.184C114.172 11.5177 113.385 11.0064 112.515 10.689C111.504 10.307 110.436 10.1004 109.356 10.078C107.978 10 107.536 10 104 10C100.464 10 100.022 10 98.644 10.078C97.5639 10.1004 96.4955 10.307 95.485 10.689C94.6162 11.0096 93.83 11.5204 93.184 12.184C92.5177 12.8277 92.0064 13.6146 91.689 14.485C91.307 15.4955 91.1004 16.5639 91.078 17.644C91 19.022 91 19.464 91 23C91 26.536 91 26.978 91.078 28.356C91.1004 29.4361 91.307 30.5045 91.689 31.515C92.0064 32.3854 92.5177 33.1723 93.184 33.816C93.83 34.4796 94.6162 34.9904 95.485 35.311C96.4955 35.693 97.5639 35.8996 98.644 35.922C100.022 36 100.464 36 104 36C107.536 36 107.978 36 109.356 35.922C110.436 35.8996 111.504 35.693 112.515 35.311C113.385 34.9936 114.172 34.4823 114.816 33.816C115.482 33.1694 115.997 32.3837 116.324 31.515C116.695 30.5018 116.897 29.4346 116.922 28.356C116.922 26.978 117 26.536 117 23C117 19.464 117 19.022 116.922 17.644ZM114.582 28.2C114.573 29.0252 114.423 29.8428 114.14 30.618C113.932 31.1838 113.599 31.695 113.165 32.113C112.743 32.5427 112.233 32.8754 111.67 33.088C110.895 33.3711 110.077 33.5205 109.252 33.53C107.952 33.595 107.471 33.608 104.052 33.608C100.633 33.608 100.152 33.608 98.852 33.53C97.9952 33.546 97.142 33.4141 96.33 33.14C95.7915 32.9165 95.3048 32.5846 94.9 32.165C94.4685 31.7474 94.1393 31.2357 93.938 30.67C93.6206 29.8837 93.4446 29.0475 93.418 28.2C93.418 26.9 93.34 26.419 93.34 23C93.34 19.581 93.34 19.1 93.418 17.8C93.4238 16.9564 93.5778 16.1203 93.873 15.33C94.1019 14.7813 94.4531 14.2922 94.9 13.9C95.295 13.453 95.7831 13.098 96.33 12.86C97.1224 12.5741 97.9576 12.4246 98.8 12.418C100.1 12.418 100.581 12.34 104 12.34C107.419 12.34 107.9 12.34 109.2 12.418C110.025 12.4275 110.843 12.5769 111.618 12.86C112.209 13.0792 112.739 13.4357 113.165 13.9C113.591 14.2993 113.924 14.7876 114.14 15.33C114.429 16.1216 114.578 16.9573 114.582 17.8C114.647 19.1 114.66 19.581 114.66 23C114.66 26.419 114.647 26.9 114.582 28.2ZM104 16.331C102.682 16.3336 101.393 16.7269 100.298 17.4612C99.2035 18.1956 98.3507 19.2381 97.8479 20.4569C97.3452 21.6757 97.2149 23.0162 97.4737 24.309C97.7325 25.6018 98.3687 26.7889 99.3019 27.7203C100.235 28.6516 101.423 29.2855 102.717 29.5418C104.01 29.7981 105.35 29.6652 106.568 29.1601C107.786 28.655 108.827 27.8002 109.559 26.7037C110.291 25.6073 110.682 24.3184 110.682 23C110.684 22.1226 110.512 21.2536 110.177 20.4428C109.841 19.6321 109.349 18.8957 108.728 18.2759C108.107 17.6561 107.37 17.1652 106.558 16.8314C105.747 16.4976 104.877 16.3276 104 16.331ZM104 27.329C103.144 27.329 102.307 27.0751 101.595 26.5994C100.883 26.1238 100.328 25.4477 100.001 24.6566C99.6729 23.8656 99.5871 22.9952 99.7542 22.1555C99.9212 21.3157 100.334 20.5444 100.939 19.9389C101.544 19.3335 102.316 18.9212 103.155 18.7542C103.995 18.5871 104.866 18.6729 105.657 19.0005C106.448 19.3282 107.124 19.883 107.599 20.5949C108.075 21.3068 108.329 22.1438 108.329 23C108.329 23.5685 108.217 24.1314 107.999 24.6566C107.782 25.1819 107.463 25.6591 107.061 26.0611C106.659 26.463 106.182 26.7819 105.657 26.9995C105.131 27.217 104.568 27.329 104 27.329Z" fill="black"/>
<defs>
<filter id="filter0_d_1_2137" x="32.1344" y="27.5177" width="25.7025" height="28.3708" filterUnits="userSpaceOnUse" color-interpolation-filters="sRGB">
<feFlood flood-opacity="0" result="BackgroundImageFix"/>
<feColorMatrix in="SourceAlpha" type="matrix" values="0 0 0 0 0 0 0 0 0 0 0 0 0 0 0 0 0 0 127 0" result="hardAlpha"/>
<feOffset dy="3"/>
<feGaussianBlur stdDeviation="3"/>
<feComposite in2="hardAlpha" operator="out"/>
<feColorMatrix type="matrix" values="0 0 0 0 0.058169 0 0 0 0 0.0107911 0 0 0 0 0.195718 0 0 0 0.2 0"/>
<feBlend mode="normal" in2="BackgroundImageFix" result="effect1_dropShadow_1_2137"/>
<feBlend mode="normal" in="SourceGraphic" in2="effect1_dropShadow_1_2137" result="shape"/>
</filter>
</defs>
</svg>
