<svg width="97" height="102" viewBox="0 0 97 102" fill="none" xmlns="http://www.w3.org/2000/svg">
<path d="M26.1644 101.238C25.6328 90.7834 25.7391 66.4708 30.4174 52.8614C36.2651 35.8497 54.34 22.0277 60.1878 45.9504C64.866 65.0886 66.39 90.7834 66.5672 101.238" stroke="#227800" stroke-width="2"/>
<path d="M80.3897 101.239C80.2125 88.4804 79.0075 58.6036 75.6052 41.1666C71.3522 19.3703 52.214 9.26959 35.2023 22.0284C18.1906 34.7872 14.4693 69.8741 16.5958 101.239" stroke="#724FD8" stroke-width="2"/>
<path d="M94.7431 101.77C95.8063 88.1252 96.019 55.8384 88.3637 35.8496C78.7946 10.8637 66.0358 -1.89512 43.7079 2.35781C21.38 6.61073 5.96317 25.7487 3.30509 56.0508C1.17862 80.2925 1.35583 96.631 1.71024 101.77" stroke="#F7A102" stroke-width="2"/>
</svg>
