<svg width="138" height="53" viewBox="0 0 138 53" fill="none" xmlns="http://www.w3.org/2000/svg">
<rect x="2" y="2" width="134" height="30" stroke="#5335AB"/>
<rect width="4" height="4" fill="white"/>
<rect x="134" width="4" height="4" fill="white"/>
<rect y="30" width="4" height="4" fill="white"/>
<line x1="69.2211" y1="38.793" x2="69.2211" y2="32.9999" stroke="black" stroke-width="0.8" stroke-dasharray="2 2"/>
<g filter="url(#filter0_d_1_2237)">
<circle cx="69.5" cy="42.0518" r="3.5" fill="white"/>
</g>
<path d="M71.782 40.5903V41.586C71.782 41.63 71.7645 41.6722 71.7334 41.7033C71.7023 41.7344 71.6601 41.7519 71.6161 41.7519H70.6204C70.5877 41.7519 70.5558 41.7422 70.5286 41.7241C70.5014 41.706 70.4802 41.6802 70.4676 41.6501C70.455 41.62 70.4515 41.5868 70.4577 41.5548C70.4638 41.5227 70.4793 41.4931 70.5021 41.4698L70.8838 41.0881L70.7946 40.9989C70.5625 40.767 70.2668 40.6092 69.9449 40.5453C69.623 40.4814 69.2895 40.5144 68.9863 40.64C68.6832 40.7657 68.4242 40.9784 68.2419 41.2513C68.0596 41.5241 67.9623 41.8449 67.9623 42.173C67.9623 42.5012 68.0596 42.8219 68.2419 43.0948C68.4242 43.3676 68.6832 43.5803 68.9863 43.706C69.2895 43.8317 69.623 43.8646 69.9449 43.8008C70.2668 43.7369 70.5625 43.579 70.7946 43.3471C70.8099 43.3315 70.8281 43.3191 70.8482 43.3106C70.8684 43.3021 70.89 43.2978 70.9118 43.2978C70.9336 43.2978 70.9553 43.3021 70.9754 43.3106C70.9955 43.3191 71.0137 43.3315 71.029 43.3471C71.06 43.3782 71.0775 43.4204 71.0775 43.4643C71.0775 43.5082 71.06 43.5504 71.029 43.5815C70.7505 43.8599 70.3956 44.0495 70.0094 44.1262C69.6231 44.203 69.2228 44.1635 68.859 44.0127C68.4951 43.862 68.1842 43.6067 67.9654 43.2793C67.7466 42.9518 67.6299 42.5668 67.6299 42.173C67.6299 41.7792 67.7466 41.3942 67.9654 41.0668C68.1842 40.7393 68.4951 40.4841 68.859 40.3333C69.2228 40.1826 69.6231 40.1431 70.0094 40.2198C70.3956 40.2966 70.7505 40.4861 71.029 40.7645L71.1182 40.8537L71.4978 40.4741C71.5208 40.4508 71.5503 40.4347 71.5824 40.4281C71.6145 40.4215 71.6479 40.4245 71.6783 40.4368C71.7086 40.4496 71.7345 40.4709 71.7529 40.4982C71.7713 40.5254 71.7814 40.5574 71.782 40.5903Z" fill="black"/>
<rect x="67" y="30" width="4" height="4" fill="white"/>
<rect x="67" width="4" height="4" fill="white"/>
<rect x="134" y="30" width="4" height="4" fill="white"/>
<defs>
<filter id="filter0_d_1_2237" x="61" y="35.5518" width="17" height="17" filterUnits="userSpaceOnUse" color-interpolation-filters="sRGB">
<feFlood flood-opacity="0" result="BackgroundImageFix"/>
<feColorMatrix in="SourceAlpha" type="matrix" values="0 0 0 0 0 0 0 0 0 0 0 0 0 0 0 0 0 0 127 0" result="hardAlpha"/>
<feMorphology radius="3" operator="erode" in="SourceAlpha" result="effect1_dropShadow_1_2237"/>
<feOffset dy="2"/>
<feGaussianBlur stdDeviation="4"/>
<feComposite in2="hardAlpha" operator="out"/>
<feColorMatrix type="matrix" values="0 0 0 0 0.112063 0 0 0 0 0 0 0 0 0 0.187384 0 0 0 0.52 0"/>
<feBlend mode="normal" in2="BackgroundImageFix" result="effect1_dropShadow_1_2237"/>
<feBlend mode="normal" in="SourceGraphic" in2="effect1_dropShadow_1_2237" result="shape"/>
</filter>
</defs>
</svg>
