<svg width="321" height="143" viewBox="0 0 321 143" fill="none" xmlns="http://www.w3.org/2000/svg">
<line x1="160.247" y1="125.369" x2="160.247" y2="116.333" stroke="black" stroke-width="0.8" stroke-dasharray="2 2"/>
<g filter="url(#filter0_d_1_2256)">
<circle cx="160.459" cy="130.452" r="5.45905" fill="white"/>
</g>
<path d="M164.018 128.172V129.725C164.018 129.793 163.991 129.859 163.942 129.908C163.894 129.956 163.828 129.983 163.759 129.983H162.206C162.155 129.983 162.106 129.968 162.063 129.94C162.021 129.912 161.988 129.872 161.968 129.825C161.948 129.778 161.943 129.726 161.953 129.676C161.962 129.626 161.986 129.58 162.022 129.543L162.617 128.948L162.478 128.809C162.116 128.447 161.655 128.201 161.153 128.101C160.651 128.002 160.13 128.053 159.658 128.249C159.185 128.445 158.781 128.777 158.497 129.202C158.212 129.628 158.061 130.128 158.061 130.64C158.061 131.152 158.212 131.652 158.497 132.078C158.781 132.503 159.185 132.835 159.658 133.031C160.13 133.227 160.651 133.279 161.153 133.179C161.655 133.079 162.116 132.833 162.478 132.471C162.502 132.447 162.53 132.428 162.562 132.415C162.593 132.401 162.627 132.394 162.661 132.394C162.695 132.394 162.729 132.401 162.76 132.415C162.791 132.428 162.82 132.447 162.844 132.471C162.892 132.52 162.919 132.586 162.919 132.654C162.919 132.723 162.892 132.789 162.844 132.837C162.409 133.271 161.856 133.567 161.253 133.687C160.651 133.806 160.026 133.745 159.459 133.51C158.892 133.274 158.407 132.876 158.065 132.366C157.724 131.855 157.542 131.254 157.542 130.64C157.542 130.026 157.724 129.425 158.065 128.915C158.407 128.404 158.892 128.006 159.459 127.771C160.026 127.536 160.651 127.474 161.253 127.594C161.856 127.713 162.409 128.009 162.844 128.443L162.983 128.582L163.575 127.99C163.611 127.954 163.657 127.929 163.707 127.919C163.757 127.908 163.809 127.913 163.856 127.932C163.904 127.952 163.944 127.985 163.973 128.028C164.001 128.07 164.017 128.12 164.018 128.172Z" fill="black"/>
<rect x="3" y="3" width="315" height="113" stroke="#5335AB"/>
<path fill-rule="evenodd" clip-rule="evenodd" d="M6 0H0V6H6V0ZM6 113H0V119H6V113ZM315 113H321V119H315V113ZM321 0H315V6H321V0ZM315 56H321V62H315V56ZM6 56H0V62H6V56ZM158 0H164V6H158V0ZM164 113H158V119H164V113Z" fill="white"/>
<defs>
<filter id="filter0_d_1_2256" x="150" y="121.993" width="20.9181" height="20.9181" filterUnits="userSpaceOnUse" color-interpolation-filters="sRGB">
<feFlood flood-opacity="0" result="BackgroundImageFix"/>
<feColorMatrix in="SourceAlpha" type="matrix" values="0 0 0 0 0 0 0 0 0 0 0 0 0 0 0 0 0 0 127 0" result="hardAlpha"/>
<feMorphology radius="3" operator="erode" in="SourceAlpha" result="effect1_dropShadow_1_2256"/>
<feOffset dy="2"/>
<feGaussianBlur stdDeviation="4"/>
<feComposite in2="hardAlpha" operator="out"/>
<feColorMatrix type="matrix" values="0 0 0 0 0.112063 0 0 0 0 0 0 0 0 0 0.187384 0 0 0 0.52 0"/>
<feBlend mode="normal" in2="BackgroundImageFix" result="effect1_dropShadow_1_2256"/>
<feBlend mode="normal" in="SourceGraphic" in2="effect1_dropShadow_1_2256" result="shape"/>
</filter>
</defs>
</svg>
