<svg width="106" height="143" viewBox="0 0 106 143" fill="none" xmlns="http://www.w3.org/2000/svg">
<path d="M0.000488281 142.258C3.68558 137.605 7.76417 133.2 12.2383 129.051C14.2751 127.161 15.9437 124.926 17.5647 122.756C19.1224 120.67 20.6361 118.642 22.3903 117.036C25.007 114.642 26.5236 111.365 27.9623 108.255C29.6676 104.57 31.2635 101.121 34.4523 99.6599C41.7306 96.3232 45.3261 90.2748 48.762 84.4949C49.8346 82.6906 50.8916 80.9124 52.0403 79.251C60.0381 67.6748 69.8915 57.9113 79.7277 48.165C87.245 40.7163 94.7523 33.2775 101.413 25.0473C104.335 21.4379 106.887 17.8886 104.731 12.1494C103.268 8.25095 101.128 9.04073 99.1419 9.77377C97.9456 10.2153 96.805 10.6362 95.9018 9.99963C95.3785 9.15582 95.7888 8.30972 96.1968 7.46841C96.8158 6.192 97.4294 4.92664 94.7693 3.69714C62.0091 35.2778 30.0343 67.6674 0.000488281 101.91V142.258Z" fill="#FFE286"/>
<path d="M0.000488281 97.4288V86.5943C0.96661 85.5736 1.93324 84.5535 2.89982 83.5333C8.20918 77.9298 13.5171 72.3278 18.7321 66.6482C32.0333 52.1618 46.0535 38.4438 60.0718 24.7275C66.7955 18.1487 73.5187 11.5703 80.162 4.90778C80.5512 4.51794 80.9552 4.03252 81.3766 3.52631C83.0662 1.49643 85.0339 -0.867713 87.4378 1.25636C89.5438 3.11617 86.7824 5.99387 84.8921 7.96383C84.753 8.10879 84.6186 8.24883 84.4912 8.38319C72.7706 20.7435 60.4911 32.5092 47.9951 44.1137C36.2547 55.0164 25.7921 67.3757 15.4067 79.6439L14.7815 80.3824C9.92328 86.1227 4.96983 91.7825 0.000488281 97.4288Z" fill="#FFE286"/>
</svg>
