<svg width="72" height="222" viewBox="0 0 72 222" fill="none" xmlns="http://www.w3.org/2000/svg">
<path opacity="0.3" d="M72.0005 3.79747C66.9157 -0.915656 59.0173 -1.35171 51.658 3.10807C44.2904 7.56904 38.7009 14.0167 33.7271 20.9357C11.033 52.455 -0.603682 87.5537 0.0241228 131.205C0.0443745 148.919 2.56369 170.841 12.1387 191.338C26.1844 221.397 49.3181 230.28 72.0005 213.866V154.826C59.7386 168.505 47.7868 167.146 38.7756 150.356C26.1425 126.82 25.2515 102.118 33.5304 74.9418C34.1982 75.8741 34.6421 76.4632 34.9391 76.8573C35.35 77.4026 35.4795 77.5745 35.5313 77.7655C35.876 79.0258 36.1226 80.3909 36.3715 81.7684C37.3386 87.1227 38.3396 92.664 45.2724 92.9645C53.0693 93.2976 55.7223 86.6874 57.067 79.5775C58.6223 71.3625 63.3167 69.4326 71.4417 72.4269C71.6291 72.496 71.8153 72.5656 72.0005 72.6358V3.79747Z" fill="white"/>
</svg>
