<svg width="40" height="40" viewBox="0 0 40 40" fill="none" xmlns="http://www.w3.org/2000/svg">
<g clip-path="url(#clip0_25_16091)">
<path d="M34.1301 5.87002C30.8638 2.61871 26.5715 0.599916 21.9841 0.157329C17.3966 -0.285259 12.7976 0.875706 8.9699 3.44259C5.14218 6.00948 2.32236 9.82363 0.990498 14.2357C-0.341365 18.6478 -0.10296 23.3851 1.66513 27.6412C3.43323 31.8972 6.62172 35.409 10.6878 37.5786C14.7539 39.7483 19.4463 40.4417 23.9661 39.5407C28.4859 38.6398 32.5538 36.2003 35.4772 32.6375C38.4007 29.0747 39.999 24.6088 40.0001 20C40.0046 17.3736 39.4881 14.7725 38.4805 12.347C37.473 9.92162 35.9943 7.72013 34.1301 5.87002ZM20.0001 37.65C16.5069 37.65 13.0921 36.614 10.1877 34.6731C7.28334 32.7321 5.01982 29.9734 3.68348 26.7459C2.34713 23.5184 1.99798 19.967 2.68021 16.541C3.36244 13.1151 5.04538 9.96838 7.51618 7.49899C9.98697 5.02959 13.1346 3.34843 16.561 2.66815C19.9873 1.98786 23.5385 2.339 26.7653 3.67718C29.992 5.01536 32.7495 7.28045 34.6888 10.1859C36.6281 13.0914 37.6621 16.5068 37.6601 20C37.6522 24.6804 35.7887 29.1666 32.4783 32.4752C29.1678 35.7838 24.6805 37.6447 20.0001 37.65Z" fill="#0D5992"/>
<path d="M23.5201 16.4699C23.5201 16.7802 23.6434 17.0778 23.8628 17.2972C24.0822 17.5167 24.3798 17.6399 24.6901 17.6399C25.0004 17.6399 25.298 17.5167 25.5175 17.2972C25.7369 17.0778 25.8601 16.7802 25.8601 16.4699C25.8424 15.7943 25.6668 15.1321 25.3473 14.5365C25.0278 13.9409 24.5733 13.4284 24.0201 13.0399C23.1771 12.4282 22.1999 12.027 21.1701 11.8699V10.6099C21.1701 10.2996 21.0469 10.002 20.8275 9.78262C20.608 9.56321 20.3104 9.43994 20.0001 9.43994C19.6898 9.43994 19.3922 9.56321 19.1728 9.78262C18.9534 10.002 18.8301 10.2996 18.8301 10.6099V11.8699C17.8009 12.0289 16.8242 12.4299 15.9801 13.0399C15.415 13.4149 14.9513 13.9238 14.6306 14.5214C14.3099 15.119 14.142 15.7867 14.142 16.4649C14.142 17.1432 14.3099 17.8109 14.6306 18.4085C14.9513 19.0061 15.415 19.515 15.9801 19.8899C16.8219 20.5041 17.7997 20.9055 18.8301 21.0599V25.6999C17.4801 25.3699 16.4901 24.4999 16.4901 23.4999C16.4631 23.207 16.3276 22.9348 16.1102 22.7365C15.8929 22.5383 15.6093 22.4284 15.3151 22.4284C15.021 22.4284 14.7374 22.5383 14.5201 22.7365C14.3027 22.9348 14.1672 23.207 14.1401 23.4999C14.157 24.1744 14.3324 24.8354 14.6521 25.4295C14.9717 26.0236 15.4267 26.5342 15.9801 26.9199C16.8219 27.5341 17.7997 27.9355 18.8301 28.0899V29.3999C18.8301 29.7102 18.9534 30.0078 19.1728 30.2272C19.3922 30.4467 19.6898 30.5699 20.0001 30.5699C20.3104 30.5699 20.608 30.4467 20.8275 30.2272C21.0469 30.0078 21.1701 29.7102 21.1701 29.3999V28.1199C22.2011 27.9674 23.1794 27.5658 24.0201 26.9499C24.5854 26.5762 25.0491 26.0682 25.37 25.4714C25.6909 24.8746 25.8588 24.2075 25.8588 23.5299C25.8588 22.8523 25.6909 22.1853 25.37 21.5885C25.0491 20.9917 24.5854 20.4837 24.0201 20.1099C23.1794 19.494 22.2011 19.0925 21.1701 18.9399V14.2899C22.5201 14.6199 23.5201 15.4999 23.5201 16.4999V16.4699ZM16.5201 16.4699C16.5201 15.4699 17.5201 14.5899 18.8601 14.2599V18.6699C17.5101 18.3399 16.5201 17.4699 16.5201 16.4699ZM23.5201 23.4699C23.5201 24.4699 22.5201 25.3399 21.1701 25.6699V21.2699C22.5201 21.5999 23.5201 22.4699 23.5201 23.4699Z" fill="#FF774C"/>
</g>
<defs>
<clipPath id="clip0_25_16091">
<rect width="40" height="40" fill="white"/>
</clipPath>
</defs>
</svg>
