<svg width="40" height="40" viewBox="0 0 40 40" fill="none" xmlns="http://www.w3.org/2000/svg">
<g clip-path="url(#clip0_25_16077)">
<path d="M38.9702 13.68C38.6429 13.3498 38.2535 13.0877 37.8244 12.9089C37.3953 12.73 36.935 12.6379 36.4702 12.6379C36.0053 12.6379 35.545 12.73 35.1159 12.9089C34.6868 13.0877 34.2974 13.3498 33.9702 13.68L24.3301 23.32C24.7377 22.65 24.9846 21.8949 25.0516 21.1136C25.1185 20.3323 25.0038 19.5462 24.7162 18.8167C24.4286 18.0872 23.9761 17.4341 23.394 16.9087C22.8119 16.3833 22.1161 15.9998 21.361 15.7882C20.606 15.5766 19.8122 15.5426 19.0418 15.689C18.2715 15.8354 17.5455 16.1581 16.9207 16.6319C16.2958 17.1057 15.7892 17.7177 15.4404 18.42C15.0916 19.1223 14.9101 19.8958 14.9102 20.68C14.906 21.6117 15.1623 22.5261 15.6501 23.32L6.01016 13.68C5.34712 13.0169 4.44784 12.6444 3.51016 12.6444C2.57248 12.6444 1.6732 13.0169 1.01016 13.68C0.347121 14.343 -0.0253906 15.2423 -0.0253906 16.18C-0.0253906 17.1176 0.347121 18.0169 1.01016 18.68L11.7802 29.45V37.3C11.7828 38.0249 12.0726 38.7193 12.5862 39.231C13.0998 39.7427 13.7952 40.03 14.5201 40.03H25.4601C26.1834 40.0273 26.8762 39.7389 27.3876 39.2274C27.899 38.716 28.1875 38.0232 28.1902 37.3V29.45L38.9601 18.68C39.2903 18.3527 39.5524 17.9633 39.7312 17.5342C39.9101 17.1051 40.0022 16.6448 40.0022 16.18C40.0022 15.7151 39.9101 15.2548 39.7312 14.8257C39.5524 14.3966 39.2903 14.0072 38.9601 13.68H38.9702ZM37.3102 17L26.2002 28.11C26.0917 28.2191 26.0058 28.3487 25.9474 28.4911C25.8891 28.6335 25.8594 28.786 25.8601 28.94V37.27C25.8576 37.3726 25.8157 37.4703 25.7431 37.5429C25.6705 37.6155 25.5728 37.6574 25.4702 37.66H14.5302C14.4267 37.66 14.3275 37.6189 14.2544 37.5457C14.1812 37.4726 14.1401 37.3734 14.1401 37.27V28.94C14.1378 28.6279 14.012 28.3295 13.7902 28.11L2.68015 17C2.46002 16.7798 2.33636 16.4813 2.33636 16.17C2.33636 15.8586 2.46002 15.5601 2.68015 15.34C2.90027 15.1198 3.19885 14.9962 3.51016 14.9962C3.82147 14.9962 4.12002 15.1198 4.34015 15.34L13.9802 24.98C14.2326 25.2348 14.5332 25.4368 14.8646 25.5742C15.196 25.7116 15.5514 25.7815 15.9102 25.78H24.0602C24.419 25.7826 24.7748 25.7132 25.1063 25.5758C25.4379 25.4384 25.7384 25.2357 25.9901 24.98L35.6302 15.34C35.8503 15.1198 36.1488 14.9962 36.4601 14.9962C36.7715 14.9962 37.07 15.1198 37.2902 15.34C37.5103 15.5601 37.6339 15.8586 37.6339 16.17C37.6339 16.4813 37.5103 16.7798 37.2902 17H37.3102ZM17.2602 20.7C17.2602 20.158 17.4208 19.6283 17.7219 19.1777C18.023 18.7271 18.4509 18.3759 18.9516 18.1685C19.4523 17.9611 20.0032 17.9069 20.5347 18.0126C21.0662 18.1183 21.5544 18.3793 21.9376 18.7625C22.3208 19.1457 22.5818 19.6339 22.6875 20.1654C22.7932 20.6969 22.739 21.2478 22.5316 21.7485C22.3242 22.2492 21.973 22.6771 21.5224 22.9782C21.0718 23.2793 20.5421 23.44 20.0002 23.44C19.6403 23.44 19.284 23.3691 18.9516 23.2314C18.6192 23.0937 18.3171 22.8919 18.0627 22.6374C17.8083 22.383 17.6064 22.0809 17.4687 21.7485C17.331 21.4161 17.2602 21.0598 17.2602 20.7Z" fill="#0D5992"/>
<path d="M15.8702 8.63997L15.2802 12.04C15.2415 12.256 15.2643 12.4785 15.346 12.6822C15.4277 12.8858 15.5651 13.0624 15.7424 13.1917C15.9197 13.321 16.1298 13.3979 16.3486 13.4135C16.5675 13.4291 16.7864 13.3828 16.9802 13.28L20.0402 11.67L23.0402 13.28C23.207 13.3664 23.3923 13.411 23.5802 13.41C23.828 13.4136 24.0702 13.3364 24.2702 13.19C24.4469 13.0602 24.5843 12.8841 24.6672 12.6812C24.7501 12.4783 24.7754 12.2564 24.7402 12.04L24.1502 8.63997L26.6202 6.23997C26.7779 6.08766 26.8895 5.89413 26.9425 5.68143C26.9955 5.46873 26.9877 5.24541 26.92 5.03694C26.8522 4.82847 26.7273 4.64323 26.5593 4.50232C26.3914 4.36141 26.1873 4.27051 25.9702 4.23997L22.5602 3.73997L21.0602 0.649979C20.9621 0.454196 20.8115 0.289564 20.6252 0.174515C20.4389 0.0594654 20.2242 -0.00146484 20.0052 -0.00146484C19.7862 -0.00146484 19.5716 0.0594654 19.3853 0.174515C19.1989 0.289564 19.0483 0.454196 18.9502 0.649979L17.4302 3.73997L14.0202 4.23997C13.8031 4.27051 13.599 4.36141 13.4311 4.50232C13.2632 4.64323 13.1382 4.82847 13.0705 5.03694C13.0027 5.24541 12.9949 5.46873 13.0479 5.68143C13.1009 5.89413 13.2126 6.08766 13.3702 6.23997L15.8702 8.63997ZM19.2902 5.32997L20.0402 3.81998L20.7802 5.32997C20.8636 5.50229 20.9886 5.65109 21.1441 5.76285C21.2995 5.87461 21.4803 5.9458 21.6702 5.96997L23.3402 6.21997L22.1302 7.38997C21.9998 7.51878 21.9011 7.67623 21.8421 7.84981C21.7831 8.02339 21.7653 8.20833 21.7902 8.38997L22.0802 10.06L20.5802 9.26997C20.4112 9.18471 20.2245 9.14029 20.0352 9.14029C19.8459 9.14029 19.6592 9.18471 19.4902 9.26997L18.0002 10.06L18.2802 8.38997C18.3067 8.20827 18.2897 8.02288 18.2306 7.84903C18.1715 7.67518 18.072 7.51785 17.9402 7.38997L16.7302 6.21997L18.4102 5.96997C18.5983 5.94423 18.7771 5.87231 18.9307 5.76064C19.0843 5.64896 19.2078 5.501 19.2902 5.32997Z" fill="#FF774C"/>
</g>
<defs>
<clipPath id="clip0_25_16077">
<rect width="40" height="40" fill="white"/>
</clipPath>
</defs>
</svg>
