<svg width="40" height="40" viewBox="0 0 40 40" fill="none" xmlns="http://www.w3.org/2000/svg">
<g clip-path="url(#clip0_10_1731)">
<path d="M38.97 13.68C38.6427 13.3498 38.2533 13.0877 37.8242 12.9089C37.3951 12.73 36.9349 12.6379 36.47 12.6379C36.0051 12.6379 35.5448 12.73 35.1158 12.9089C34.6867 13.0877 34.2973 13.3498 33.97 13.68L24.33 23.32C24.7375 22.65 24.9844 21.8949 25.0514 21.1136C25.1184 20.3323 25.0036 19.5462 24.716 18.8167C24.4285 18.0872 23.9759 17.4341 23.3938 16.9087C22.8117 16.3833 22.1159 15.9998 21.3609 15.7882C20.6058 15.5766 19.812 15.5426 19.0417 15.689C18.2713 15.8354 17.5453 16.1581 16.9205 16.6319C16.2957 17.1057 15.789 17.7177 15.4402 18.42C15.0914 19.1223 14.91 19.8958 14.91 20.68C14.9059 21.6117 15.1622 22.5261 15.65 23.32L6.01001 13.68C5.34697 13.0169 4.44769 12.6444 3.51001 12.6444C2.57233 12.6444 1.67305 13.0169 1.01001 13.68C0.346969 14.343 -0.0255432 15.2423 -0.0255432 16.18C-0.0255432 17.1176 0.346969 18.0169 1.01001 18.68L11.78 29.45V37.3C11.7826 38.0249 12.0725 38.7193 12.5861 39.231C13.0996 39.7427 13.795 40.03 14.52 40.03H25.46C26.1832 40.0273 26.8761 39.7389 27.3875 39.2274C27.8989 38.716 28.1874 38.0232 28.19 37.3V29.45L38.96 18.68C39.2902 18.3527 39.5522 17.9633 39.7311 17.5342C39.9099 17.1051 40.002 16.6448 40.002 16.18C40.002 15.7151 39.9099 15.2548 39.7311 14.8257C39.5522 14.3966 39.2902 14.0072 38.96 13.68H38.97ZM37.31 17L26.2 28.11C26.0915 28.2191 26.0056 28.3487 25.9473 28.4911C25.889 28.6335 25.8593 28.786 25.86 28.94V37.27C25.8575 37.3726 25.8155 37.4703 25.743 37.5429C25.6704 37.6155 25.5726 37.6574 25.47 37.66H14.53C14.4266 37.66 14.3274 37.6189 14.2542 37.5457C14.1811 37.4726 14.14 37.3734 14.14 37.27V28.94C14.1377 28.6279 14.0118 28.3295 13.79 28.11L2.67999 17C2.45986 16.7798 2.33621 16.4813 2.33621 16.17C2.33621 15.8586 2.45986 15.5601 2.67999 15.34C2.90012 15.1198 3.1987 14.9962 3.51001 14.9962C3.82132 14.9962 4.11987 15.1198 4.34 15.34L13.98 24.98C14.2324 25.2348 14.5331 25.4368 14.8645 25.5742C15.1958 25.7116 15.5513 25.7815 15.91 25.78H24.06C24.4189 25.7826 24.7746 25.7132 25.1062 25.5758C25.4377 25.4384 25.7382 25.2357 25.99 24.98L35.63 15.34C35.8501 15.1198 36.1487 14.9962 36.46 14.9962C36.7713 14.9962 37.0699 15.1198 37.29 15.34C37.5101 15.5601 37.6338 15.8586 37.6338 16.17C37.6338 16.4813 37.5101 16.7798 37.29 17H37.31ZM17.26 20.7C17.26 20.158 17.4207 19.6283 17.7218 19.1777C18.0228 18.7271 18.4508 18.3759 18.9514 18.1685C19.4521 17.9611 20.003 17.9069 20.5345 18.0126C21.0661 18.1183 21.5543 18.3793 21.9375 18.7625C22.3207 19.1457 22.5816 19.6339 22.6873 20.1654C22.7931 20.6969 22.7388 21.2478 22.5314 21.7485C22.324 22.2492 21.9728 22.6771 21.5222 22.9782C21.0717 23.2793 20.5419 23.44 20 23.44C19.6402 23.44 19.2839 23.3691 18.9514 23.2314C18.619 23.0937 18.317 22.8919 18.0625 22.6374C17.8081 22.383 17.6063 22.0809 17.4686 21.7485C17.3309 21.4161 17.26 21.0598 17.26 20.7Z" fill="#0D5992"/>
<path d="M15.87 8.63997L15.28 12.04C15.2413 12.256 15.2641 12.4785 15.3458 12.6822C15.4275 12.8858 15.5649 13.0624 15.7422 13.1917C15.9195 13.321 16.1295 13.3979 16.3484 13.4135C16.5673 13.4291 16.7862 13.3828 16.98 13.28L20.04 11.67L23.04 13.28C23.2068 13.3664 23.3921 13.411 23.58 13.41C23.8278 13.4136 24.07 13.3364 24.27 13.19C24.4467 13.0602 24.5841 12.8841 24.667 12.6812C24.7499 12.4783 24.7752 12.2564 24.74 12.04L24.15 8.63997L26.62 6.23997C26.7776 6.08766 26.8893 5.89413 26.9423 5.68143C26.9953 5.46873 26.9875 5.24541 26.9197 5.03694C26.852 4.82847 26.727 4.64323 26.5591 4.50232C26.3912 4.36141 26.1871 4.27051 25.97 4.23997L22.56 3.73997L21.06 0.649979C20.9619 0.454196 20.8113 0.289564 20.625 0.174515C20.4387 0.0594654 20.224 -0.00146484 20.005 -0.00146484C19.786 -0.00146484 19.5714 0.0594654 19.385 0.174515C19.1987 0.289564 19.0481 0.454196 18.95 0.649979L17.43 3.73997L14.02 4.23997C13.8029 4.27051 13.5988 4.36141 13.4309 4.50232C13.263 4.64323 13.138 4.82847 13.0703 5.03694C13.0025 5.24541 12.9947 5.46873 13.0477 5.68143C13.1007 5.89413 13.2124 6.08766 13.37 6.23997L15.87 8.63997ZM19.29 5.32997L20.04 3.81998L20.78 5.32997C20.8634 5.50229 20.9884 5.65109 21.1438 5.76285C21.2993 5.87461 21.4801 5.9458 21.67 5.96997L23.34 6.21997L22.13 7.38997C21.9995 7.51878 21.9009 7.67623 21.8419 7.84981C21.7828 8.02339 21.7651 8.20833 21.79 8.38997L22.08 10.06L20.58 9.26997C20.411 9.18471 20.2243 9.14029 20.035 9.14029C19.8457 9.14029 19.659 9.18471 19.49 9.26997L18 10.06L18.28 8.38997C18.3065 8.20827 18.2895 8.02288 18.2304 7.84903C18.1713 7.67518 18.0718 7.51785 17.94 7.38997L16.73 6.21997L18.41 5.96997C18.5981 5.94423 18.7769 5.87231 18.9305 5.76064C19.084 5.64896 19.2076 5.501 19.29 5.32997Z" fill="#FF774C"/>
</g>
<defs>
<clipPath id="clip0_10_1731">
<rect width="40" height="40" fill="white"/>
</clipPath>
</defs>
</svg>
