<svg width="40" height="40" viewBox="0 0 40 40" fill="none" xmlns="http://www.w3.org/2000/svg">
<g clip-path="url(#clip0_25_15843)">
<path d="M38.9699 13.68C38.6427 13.3498 38.2532 13.0877 37.8241 12.9089C37.395 12.73 36.9348 12.6379 36.4699 12.6379C36.005 12.6379 35.5448 12.73 35.1157 12.9089C34.6866 13.0877 34.2972 13.3498 33.9699 13.68L24.3299 23.32C24.7374 22.65 24.9844 21.8949 25.0513 21.1136C25.1183 20.3323 25.0035 19.5462 24.7159 18.8167C24.4284 18.0872 23.9758 17.4341 23.3937 16.9087C22.8117 16.3833 22.1158 15.9998 21.3608 15.7882C20.6057 15.5766 19.812 15.5426 19.0416 15.689C18.2712 15.8354 17.5452 16.1581 16.9204 16.6319C16.2956 17.1057 15.789 17.7177 15.4402 18.42C15.0914 19.1223 14.9099 19.8958 14.9099 20.68C14.9058 21.6117 15.1621 22.5261 15.6499 23.32L6.00992 13.68C5.34688 13.0169 4.4476 12.6444 3.50992 12.6444C2.57224 12.6444 1.67296 13.0169 1.00992 13.68C0.346877 14.343 -0.0256348 15.2423 -0.0256348 16.18C-0.0256348 17.1176 0.346877 18.0169 1.00992 18.68L11.7799 29.45V37.3C11.7826 38.0249 12.0724 38.7193 12.586 39.231C13.0995 39.7427 13.7949 40.03 14.5199 40.03H25.4599C26.1831 40.0273 26.876 39.7389 27.3874 39.2274C27.8988 38.716 28.1873 38.0232 28.1899 37.3V29.45L38.9599 18.68C39.2901 18.3527 39.5521 17.9633 39.731 17.5342C39.9098 17.1051 40.0019 16.6448 40.0019 16.18C40.0019 15.7151 39.9098 15.2548 39.731 14.8257C39.5521 14.3966 39.2901 14.0072 38.9599 13.68H38.9699ZM37.3099 17L26.1999 28.11C26.0914 28.2191 26.0055 28.3487 25.9472 28.4911C25.8889 28.6335 25.8592 28.786 25.8599 28.94V37.27C25.8574 37.3726 25.8155 37.4703 25.7429 37.5429C25.6703 37.6155 25.5725 37.6574 25.4699 37.66H14.5299C14.4265 37.66 14.3273 37.6189 14.2541 37.5457C14.181 37.4726 14.1399 37.3734 14.1399 37.27V28.94C14.1376 28.6279 14.0117 28.3295 13.7899 28.11L2.6799 17C2.45977 16.7798 2.33612 16.4813 2.33612 16.17C2.33612 15.8586 2.45977 15.5601 2.6799 15.34C2.90003 15.1198 3.19861 14.9962 3.50992 14.9962C3.82123 14.9962 4.11978 15.1198 4.3399 15.34L13.9799 24.98C14.2323 25.2348 14.533 25.4368 14.8644 25.5742C15.1958 25.7116 15.5512 25.7815 15.9099 25.78H24.0599C24.4188 25.7826 24.7745 25.7132 25.1061 25.5758C25.4376 25.4384 25.7382 25.2357 25.9899 24.98L35.6299 15.34C35.85 15.1198 36.1486 14.9962 36.4599 14.9962C36.7712 14.9962 37.0698 15.1198 37.2899 15.34C37.51 15.5601 37.6337 15.8586 37.6337 16.17C37.6337 16.4813 37.51 16.7798 37.2899 17H37.3099ZM17.2599 20.7C17.2599 20.158 17.4206 19.6283 17.7217 19.1777C18.0228 18.7271 18.4507 18.3759 18.9514 18.1685C19.452 17.9611 20.0029 17.9069 20.5345 18.0126C21.066 18.1183 21.5542 18.3793 21.9374 18.7625C22.3206 19.1457 22.5815 19.6339 22.6873 20.1654C22.793 20.6969 22.7387 21.2478 22.5313 21.7485C22.324 22.2492 21.9727 22.6771 21.5222 22.9782C21.0716 23.2793 20.5418 23.44 19.9999 23.44C19.6401 23.44 19.2838 23.3691 18.9514 23.2314C18.6189 23.0937 18.3169 22.8919 18.0624 22.6374C17.808 22.383 17.6062 22.0809 17.4685 21.7485C17.3308 21.4161 17.2599 21.0598 17.2599 20.7Z" fill="#0D5992"/>
<path d="M15.87 8.63997L15.28 12.04C15.2413 12.256 15.2641 12.4785 15.3458 12.6822C15.4275 12.8858 15.5648 13.0624 15.7421 13.1917C15.9194 13.321 16.1295 13.3979 16.3484 13.4135C16.5673 13.4291 16.7861 13.3828 16.98 13.28L20.04 11.67L23.04 13.28C23.2068 13.3664 23.3921 13.411 23.58 13.41C23.8278 13.4136 24.07 13.3364 24.27 13.19C24.4466 13.0602 24.584 12.8841 24.667 12.6812C24.7499 12.4783 24.7752 12.2564 24.74 12.04L24.15 8.63997L26.62 6.23997C26.7776 6.08766 26.8893 5.89413 26.9423 5.68143C26.9953 5.46873 26.9875 5.24541 26.9197 5.03694C26.852 4.82847 26.727 4.64323 26.5591 4.50232C26.3912 4.36141 26.187 4.27051 25.97 4.23997L22.56 3.73997L21.06 0.649979C20.9619 0.454196 20.8113 0.289564 20.6249 0.174515C20.4386 0.0594654 20.224 -0.00146484 20.005 -0.00146484C19.786 -0.00146484 19.5713 0.0594654 19.385 0.174515C19.1987 0.289564 19.0481 0.454196 18.95 0.649979L17.43 3.73997L14.02 4.23997C13.8029 4.27051 13.5988 4.36141 13.4309 4.50232C13.2629 4.64323 13.138 4.82847 13.0702 5.03694C13.0025 5.24541 12.9947 5.46873 13.0476 5.68143C13.1006 5.89413 13.2123 6.08766 13.37 6.23997L15.87 8.63997ZM19.29 5.32997L20.04 3.81998L20.78 5.32997C20.8633 5.50229 20.9884 5.65109 21.1438 5.76285C21.2992 5.87461 21.4801 5.9458 21.67 5.96997L23.34 6.21997L22.13 7.38997C21.9995 7.51878 21.9009 7.67623 21.8418 7.84981C21.7828 8.02339 21.7651 8.20833 21.79 8.38997L22.08 10.06L20.58 9.26997C20.4109 9.18471 20.2243 9.14029 20.035 9.14029C19.8457 9.14029 19.659 9.18471 19.49 9.26997L18 10.06L18.28 8.38997C18.3065 8.20827 18.2895 8.02288 18.2304 7.84903C18.1713 7.67518 18.0718 7.51785 17.94 7.38997L16.73 6.21997L18.41 5.96997C18.5981 5.94423 18.7769 5.87231 18.9305 5.76064C19.084 5.64896 19.2075 5.501 19.29 5.32997Z" fill="#FF774C"/>
</g>
<defs>
<clipPath id="clip0_25_15843">
<rect width="40" height="40" fill="white"/>
</clipPath>
</defs>
</svg>
