<svg width="40" height="40" viewBox="0 0 40 40" fill="none" xmlns="http://www.w3.org/2000/svg">
<g clip-path="url(#clip0_10_1728)">
<path d="M34.13 5.87002C30.8636 2.61871 26.5713 0.599916 21.9839 0.157329C17.3965 -0.285259 12.7975 0.875706 8.96975 3.44259C5.14202 6.00948 2.32221 9.82363 0.990345 14.2357C-0.341518 18.6478 -0.103113 23.3851 1.66498 27.6412C3.43308 31.8972 6.62157 35.409 10.6877 37.5786C14.7537 39.7483 19.4461 40.4417 23.9659 39.5407C28.4857 38.6398 32.5536 36.2003 35.4771 32.6375C38.4006 29.0747 39.9989 24.6088 40 20C40.0045 17.3736 39.488 14.7725 38.4804 12.347C37.4728 9.92162 35.9941 7.72013 34.13 5.87002ZM20 37.65C16.5067 37.65 13.092 36.614 10.1876 34.6731C7.28319 32.7321 5.01967 29.9734 3.68332 26.7459C2.34697 23.5184 1.99783 19.967 2.68006 16.541C3.36228 13.1151 5.04523 9.96838 7.51603 7.49899C9.98682 5.02959 13.1345 3.34843 16.5608 2.66815C19.9872 1.98786 23.5383 2.339 26.7651 3.67718C29.9919 5.01536 32.7493 7.28045 34.6886 10.1859C36.6279 13.0914 37.662 16.5068 37.66 20C37.6521 24.6804 35.7886 29.1666 32.4781 32.4752C29.1677 35.7838 24.6804 37.6447 20 37.65Z" fill="#0D5992"/>
<path d="M23.52 16.4699C23.52 16.7802 23.6433 17.0778 23.8627 17.2972C24.0821 17.5167 24.3797 17.6399 24.69 17.6399C25.0003 17.6399 25.2979 17.5167 25.5173 17.2972C25.7367 17.0778 25.86 16.7802 25.86 16.4699C25.8423 15.7943 25.6666 15.1321 25.3471 14.5365C25.0276 13.9409 24.5731 13.4284 24.02 13.0399C23.1769 12.4282 22.1997 12.027 21.17 11.8699V10.6099C21.17 10.2996 21.0467 10.002 20.8273 9.78262C20.6079 9.56321 20.3103 9.43994 20 9.43994C19.6897 9.43994 19.3921 9.56321 19.1727 9.78262C18.9533 10.002 18.83 10.2996 18.83 10.6099V11.8699C17.8008 12.0289 16.824 12.4299 15.98 13.0399C15.4148 13.4149 14.9512 13.9238 14.6304 14.5214C14.3097 15.119 14.1419 15.7867 14.1419 16.4649C14.1419 17.1432 14.3097 17.8109 14.6304 18.4085C14.9512 19.0061 15.4148 19.515 15.98 19.8899C16.8217 20.5041 17.7995 20.9055 18.83 21.0599V25.6999C17.48 25.3699 16.49 24.4999 16.49 23.4999C16.4629 23.207 16.3275 22.9348 16.1101 22.7365C15.8927 22.5383 15.6092 22.4284 15.315 22.4284C15.0208 22.4284 14.7373 22.5383 14.5199 22.7365C14.3025 22.9348 14.167 23.207 14.14 23.4999C14.1569 24.1744 14.3323 24.8354 14.6519 25.4295C14.9715 26.0236 15.4265 26.5342 15.98 26.9199C16.8217 27.5341 17.7995 27.9355 18.83 28.0899V29.3999C18.83 29.7102 18.9533 30.0078 19.1727 30.2272C19.3921 30.4467 19.6897 30.5699 20 30.5699C20.3103 30.5699 20.6079 30.4467 20.8273 30.2272C21.0467 30.0078 21.17 29.7102 21.17 29.3999V28.1199C22.201 27.9674 23.1792 27.5658 24.02 26.9499C24.5852 26.5762 25.049 26.0682 25.3699 25.4714C25.6907 24.8746 25.8587 24.2075 25.8587 23.5299C25.8587 22.8523 25.6907 22.1853 25.3699 21.5885C25.049 20.9917 24.5852 20.4837 24.02 20.1099C23.1792 19.494 22.201 19.0925 21.17 18.9399V14.2899C22.52 14.6199 23.52 15.4999 23.52 16.4999V16.4699ZM16.52 16.4699C16.52 15.4699 17.52 14.5899 18.86 14.2599V18.6699C17.51 18.3399 16.52 17.4699 16.52 16.4699ZM23.52 23.4699C23.52 24.4699 22.52 25.3399 21.17 25.6699V21.2699C22.52 21.5999 23.52 22.4699 23.52 23.4699Z" fill="#FF774C"/>
</g>
<defs>
<clipPath id="clip0_10_1728">
<rect width="40" height="40" fill="white"/>
</clipPath>
</defs>
</svg>
