<svg width="40" height="40" viewBox="0 0 40 40" fill="none" xmlns="http://www.w3.org/2000/svg">
<g clip-path="url(#clip0_25_15857)">
<path d="M34.1299 5.87002C30.8635 2.61871 26.5713 0.599916 21.9838 0.157329C17.3964 -0.285259 12.7974 0.875706 8.96965 3.44259C5.14193 6.00948 2.32212 9.82363 0.990253 14.2357C-0.341609 18.6478 -0.103204 23.3851 1.66489 27.6412C3.43298 31.8972 6.62147 35.409 10.6876 37.5786C14.7537 39.7483 19.446 40.4417 23.9658 39.5407C28.4856 38.6398 32.5535 36.2003 35.477 32.6375C38.4005 29.0747 39.9988 24.6088 39.9999 20C40.0044 17.3736 39.4879 14.7725 38.4803 12.347C37.4727 9.92162 35.994 7.72013 34.1299 5.87002ZM19.9999 37.65C16.5067 37.65 13.0919 36.614 10.1875 34.6731C7.2831 32.7321 5.01958 29.9734 3.68323 26.7459C2.34688 23.5184 1.99774 19.967 2.67997 16.541C3.36219 13.1151 5.04514 9.96838 7.51593 7.49899C9.98673 5.02959 13.1344 3.34843 16.5607 2.66815C19.9871 1.98786 23.5382 2.339 26.765 3.67718C29.9918 5.01536 32.7492 7.28045 34.6885 10.1859C36.6278 13.0914 37.6619 16.5068 37.6599 20C37.652 24.6804 35.7885 29.1666 32.478 32.4752C29.1676 35.7838 24.6803 37.6447 19.9999 37.65Z" fill="#0D5992"/>
<path d="M23.5199 16.4699C23.5199 16.7802 23.6432 17.0778 23.8626 17.2972C24.082 17.5167 24.3796 17.6399 24.6899 17.6399C25.0002 17.6399 25.2978 17.5167 25.5172 17.2972C25.7366 17.0778 25.8599 16.7802 25.8599 16.4699C25.8422 15.7943 25.6665 15.1321 25.347 14.5365C25.0275 13.9409 24.573 13.4284 24.0199 13.0399C23.1768 12.4282 22.1996 12.027 21.1699 11.8699V10.6099C21.1699 10.2996 21.0466 10.002 20.8272 9.78262C20.6078 9.56321 20.3102 9.43994 19.9999 9.43994C19.6896 9.43994 19.392 9.56321 19.1726 9.78262C18.9532 10.002 18.8299 10.2996 18.8299 10.6099V11.8699C17.8007 12.0289 16.8239 12.4299 15.9799 13.0399C15.4147 13.4149 14.9511 13.9238 14.6304 14.5214C14.3096 15.119 14.1418 15.7867 14.1418 16.4649C14.1418 17.1432 14.3096 17.8109 14.6304 18.4085C14.9511 19.0061 15.4147 19.515 15.9799 19.8899C16.8216 20.5041 17.7994 20.9055 18.8299 21.0599V25.6999C17.4799 25.3699 16.4899 24.4999 16.4899 23.4999C16.4628 23.207 16.3274 22.9348 16.11 22.7365C15.8926 22.5383 15.6091 22.4284 15.3149 22.4284C15.0207 22.4284 14.7372 22.5383 14.5198 22.7365C14.3024 22.9348 14.1669 23.207 14.1399 23.4999C14.1568 24.1744 14.3322 24.8354 14.6518 25.4295C14.9715 26.0236 15.4264 26.5342 15.9799 26.9199C16.8216 27.5341 17.7994 27.9355 18.8299 28.0899V29.3999C18.8299 29.7102 18.9532 30.0078 19.1726 30.2272C19.392 30.4467 19.6896 30.5699 19.9999 30.5699C20.3102 30.5699 20.6078 30.4467 20.8272 30.2272C21.0466 30.0078 21.1699 29.7102 21.1699 29.3999V28.1199C22.2009 27.9674 23.1791 27.5658 24.0199 26.9499C24.5851 26.5762 25.0489 26.0682 25.3698 25.4714C25.6906 24.8746 25.8586 24.2075 25.8586 23.5299C25.8586 22.8523 25.6906 22.1853 25.3698 21.5885C25.0489 20.9917 24.5851 20.4837 24.0199 20.1099C23.1791 19.494 22.2009 19.0925 21.1699 18.9399V14.2899C22.5199 14.6199 23.5199 15.4999 23.5199 16.4999V16.4699ZM16.5199 16.4699C16.5199 15.4699 17.5199 14.5899 18.8599 14.2599V18.6699C17.5099 18.3399 16.5199 17.4699 16.5199 16.4699ZM23.5199 23.4699C23.5199 24.4699 22.5199 25.3399 21.1699 25.6699V21.2699C22.5199 21.5999 23.5199 22.4699 23.5199 23.4699Z" fill="#FF774C"/>
</g>
<defs>
<clipPath id="clip0_25_15857">
<rect width="40" height="40" fill="white"/>
</clipPath>
</defs>
</svg>
