<svg width="141" height="28" viewBox="0 0 141 28" fill="none" xmlns="http://www.w3.org/2000/svg">
<g clip-path="url(#clip0_201_266)">
<path d="M60.1768 28C59.2797 28.0612 58.3819 27.8932 57.5615 27.5109V24.6084C58.211 24.9399 58.9265 25.1075 59.65 25.0976C60.0324 25.1033 60.4117 25.0248 60.7629 24.8675C61.1142 24.7101 61.4295 24.4774 61.6883 24.1845C62.4129 23.3529 62.9866 22.3917 63.3816 21.3473L57.066 6.39182H60.5907L64.937 17.1274L69.139 6.39182H72.5759L65.6771 23.3497C64.3809 26.4542 62.5475 28.0044 60.1768 28Z" fill="#0D5992"/>
<path d="M87.0008 21.393H73.9243V19.221L81.9458 9.32028H74.4198V6.41788H86.499V8.6811L78.4776 18.5166H86.9694L87.0008 21.393Z" fill="#0D5992"/>
<path d="M95.6118 21.7908C94.5622 21.829 93.516 21.6458 92.5363 21.2524C91.5565 20.859 90.6635 20.2634 89.9109 19.5015C88.482 18.0143 87.6793 15.998 87.6793 13.8957C87.6793 11.7933 88.482 9.77697 89.9109 8.28979C91.4656 6.81676 93.493 6.00031 95.5962 6.00031C97.6993 6.00031 99.7268 6.81676 101.281 8.28979C102.004 9.01125 102.575 9.88016 102.959 10.842C103.343 11.8039 103.532 12.838 103.514 13.8793C103.531 14.9253 103.341 15.9638 102.957 16.9307C102.573 17.8976 102.003 18.7725 101.281 19.5015C100.532 20.2584 99.6439 20.8511 98.67 21.2444C97.6961 21.6376 96.6561 21.8235 95.6118 21.7908ZM95.6118 18.8884C96.2397 18.9021 96.8635 18.7818 97.4449 18.535C98.0263 18.2882 98.5529 17.9201 98.9923 17.4535C99.8581 16.4876 100.34 15.2162 100.34 13.8957C100.34 12.5751 99.8581 11.3037 98.9923 10.3378C98.4315 9.75443 97.7408 9.32415 96.9816 9.08517C96.2224 8.84618 95.4182 8.80587 94.6404 8.96783C93.8626 9.12979 93.1354 9.489 92.5232 10.0136C91.911 10.5381 91.4329 11.2118 91.1313 11.9747C90.8296 12.7376 90.7139 13.5662 90.7942 14.3869C90.8746 15.2075 91.1486 15.9949 91.5919 16.6789C92.0352 17.3629 92.6341 17.9226 93.3354 18.308C94.0367 18.6935 94.8187 18.8928 95.6118 18.8884Z" fill="#0D5992"/>
<path d="M109.253 0.00653076V21.393H106.079V0.00653076H109.253Z" fill="#0D5992"/>
<path d="M120.372 21.4125H117.494L111.028 6.41138H114.527L119.018 17.16L123.458 6.41138H126.832L120.372 21.4125Z" fill="#0D5992"/>
<path d="M126.751 13.8793C126.718 12.8471 126.883 11.8184 127.236 10.8531C127.589 9.88789 128.123 9.00541 128.808 8.25715C129.497 7.51165 130.33 6.92543 131.252 6.53662C132.173 6.14782 133.164 5.96514 134.158 6.00045C135.507 5.96343 136.83 6.39233 137.921 7.22012C139.961 8.72893 140.979 10.99 140.975 14.0033V14.8577H129.956C130.033 15.45 130.228 16.0191 130.528 16.5288C130.828 17.0386 131.227 17.4779 131.699 17.8188C132.789 18.57 134.08 18.9443 135.387 18.8884C137.023 18.8938 138.629 18.4288 140.028 17.5448V20.3298C138.445 21.376 136.589 21.8864 134.716 21.7908C132.633 21.8348 130.614 21.0484 129.071 19.5928C128.311 18.8711 127.71 17.9867 127.309 17.0005C126.908 16.0142 126.718 14.9494 126.751 13.8793ZM129.981 12.3531H137.795C137.778 11.8599 137.667 11.3751 137.468 10.9272C137.269 10.4792 136.986 10.077 136.635 9.7442C136.285 9.41138 135.874 9.15459 135.427 8.98885C134.98 8.8231 134.506 8.75174 134.032 8.77894C133.015 8.74147 132.022 9.1075 131.254 9.80292C130.527 10.4484 130.07 11.3632 129.981 12.3531Z" fill="#0D5992"/>
<path d="M28.6804 6.39832H7.40686L0 0H21.2673L28.6804 6.39832Z" fill="#0D5992"/>
<path d="M0 13.6445H21.2673L28.6804 6.39832H7.40686L0 13.6445Z" fill="#FF774C"/>
<path d="M28.6741 21.4712H7.40686L0 13.6445H21.2673L28.6741 21.4712Z" fill="#0D5992"/>
<path d="M42.3025 21.4386H39.0663V0.0130615H48.4738C50.5936 0.0130615 52.2535 0.573976 53.4535 1.6958C54.0498 2.2468 54.5223 2.9273 54.8376 3.6892C55.153 4.45109 55.3036 5.27575 55.2786 6.10484C55.3284 7.48234 54.9052 8.83332 54.0848 9.916C53.2643 10.9987 52.1001 11.7424 50.8006 12.014L57.2793 21.4386H53.3657L47.1505 12.3792H42.3025V21.4386ZM42.3025 3.1046V9.43771H48.2543C49.2342 9.49758 50.2042 9.20511 51.0013 8.60938C51.3324 8.3237 51.5944 7.96131 51.7665 7.55129C51.9386 7.14127 52.0159 6.69502 51.9922 6.24833C52.0114 5.81169 51.9318 5.37647 51.7596 4.97771C51.5875 4.57894 51.3278 4.22777 51.0013 3.95249C50.2033 3.35907 49.2335 3.06893 48.2543 3.13069L42.3025 3.1046Z" fill="#0D5992"/>
</g>
<defs>
<clipPath id="clip0_201_266">
<rect width="141" height="28" fill="white"/>
</clipPath>
</defs>
</svg>
