<svg width="141" height="28" viewBox="0 0 141 28" fill="none" xmlns="http://www.w3.org/2000/svg">
<g clip-path="url(#clip0_201_135)">
<path d="M60.1769 28C59.2798 28.0612 58.382 27.8933 57.5616 27.5109V24.6085C58.2112 24.9399 58.9267 25.1075 59.6501 25.0976C60.0325 25.1033 60.4118 25.0249 60.763 24.8675C61.1143 24.7102 61.4296 24.4774 61.6884 24.1845C62.413 23.353 62.9868 22.3917 63.3818 21.3474L57.0662 6.39185H60.5909L64.9371 17.1275L69.1392 6.39185H72.576L65.6772 23.3497C64.381 26.4543 62.5476 28.0044 60.1769 28Z" fill="#0D5992"/>
<path d="M87.0008 21.3929H73.9243V19.221L81.9458 9.32025H74.4198V6.41785H86.499V8.68107L78.4776 18.5166H86.9694L87.0008 21.3929Z" fill="#0D5992"/>
<path d="M95.6117 21.7908C94.5621 21.8289 93.5159 21.6458 92.5362 21.2523C91.5564 20.8589 90.6633 20.2633 89.9108 19.5015C88.4819 18.0143 87.6792 15.998 87.6792 13.8956C87.6792 11.7932 88.4819 9.77691 89.9108 8.28973C91.4655 6.8167 93.4929 6.00024 95.5961 6.00024C97.6992 6.00024 99.7266 6.8167 101.281 8.28973C102.004 9.01119 102.575 9.8801 102.959 10.842C103.343 11.8038 103.532 12.8379 103.514 13.8793C103.531 14.9253 103.341 15.9637 102.957 16.9306C102.573 17.8975 102.003 18.7724 101.281 19.5015C100.532 20.2584 99.6438 20.8511 98.6699 21.2443C97.6959 21.6376 96.656 21.8234 95.6117 21.7908ZM95.6117 18.8884C96.2396 18.902 96.8634 18.7817 97.4448 18.5349C98.0262 18.2881 98.5528 17.9201 98.9922 17.4535C99.858 16.4875 100.339 15.2161 100.339 13.8956C100.339 12.5751 99.858 11.3036 98.9922 10.3377C98.4313 9.75437 97.7406 9.32409 96.9814 9.0851C96.2223 8.84612 95.4181 8.80581 94.6403 8.96777C93.8625 9.12973 93.1353 9.48894 92.5231 10.0135C91.9109 10.538 91.4328 11.2117 91.1311 11.9746C90.8295 12.7376 90.7138 13.5662 90.7941 14.3868C90.8745 15.2075 91.1485 15.9948 91.5918 16.6788C92.0351 17.3629 92.634 17.9225 93.3353 18.3079C94.0366 18.6934 94.8185 18.8928 95.6117 18.8884Z" fill="#0D5992"/>
<path d="M109.253 0.00646973V21.3929H106.079V0.00646973H109.253Z" fill="#0D5992"/>
<path d="M120.372 21.4125H117.494L111.028 6.41138H114.527L119.018 17.16L123.458 6.41138H126.832L120.372 21.4125Z" fill="#0D5992"/>
<path d="M126.751 13.8794C126.718 12.8472 126.883 11.8185 127.236 10.8532C127.589 9.88795 128.123 9.00547 128.808 8.25721C129.497 7.51171 130.33 6.92549 131.252 6.53669C132.173 6.14788 133.164 5.9652 134.158 6.00051C135.507 5.9635 136.83 6.39239 137.921 7.22018C139.961 8.72899 140.979 10.99 140.975 14.0033V14.8577H129.956C130.033 15.45 130.228 16.0191 130.528 16.5289C130.828 17.0386 131.227 17.4779 131.699 17.8188C132.789 18.57 134.08 18.9443 135.387 18.8885C137.023 18.8939 138.629 18.4289 140.028 17.5449V20.3299C138.445 21.376 136.589 21.8864 134.716 21.7909C132.633 21.8349 130.614 21.0484 129.071 19.5929C128.311 18.8712 127.71 17.9868 127.309 17.0005C126.908 16.0143 126.718 14.9495 126.751 13.8794ZM129.981 12.3532H137.795C137.778 11.86 137.667 11.3752 137.468 10.9272C137.269 10.4793 136.986 10.0771 136.635 9.74427C136.285 9.41144 135.874 9.15465 135.427 8.98891C134.98 8.82316 134.506 8.7518 134.032 8.779C133.015 8.74153 132.022 9.10756 131.254 9.80298C130.527 10.4485 130.07 11.3633 129.981 12.3532Z" fill="#0D5992"/>
<path d="M28.6804 6.39832H7.40686L0 0H21.2673L28.6804 6.39832Z" fill="#0D5992"/>
<path d="M0 13.6445H21.2673L28.6804 6.39832H7.40686L0 13.6445Z" fill="#FF774C"/>
<path d="M28.6741 21.4712H7.40686L0 13.6445H21.2673L28.6741 21.4712Z" fill="#0D5992"/>
<path d="M42.3026 21.4386H39.0664V0.0130615H48.4739C50.5938 0.0130615 52.2537 0.573976 53.4537 1.6958C54.0499 2.2468 54.5224 2.9273 54.8378 3.6892C55.1531 4.45109 55.3037 5.27575 55.2787 6.10484C55.3285 7.48234 54.9053 8.83332 54.0849 9.916C53.2644 10.9987 52.1003 11.7424 50.8007 12.014L57.2794 21.4386H53.3658L47.1506 12.3792H42.3026V21.4386ZM42.3026 3.1046V9.43771H48.2544C49.2344 9.49758 50.2043 9.20511 51.0014 8.60938C51.3325 8.3237 51.5946 7.96131 51.7666 7.55129C51.9387 7.14127 52.016 6.69502 51.9923 6.24833C52.0115 5.81169 51.9319 5.37647 51.7598 4.97771C51.5876 4.57894 51.3279 4.22777 51.0014 3.95249C50.2035 3.35907 49.2336 3.06893 48.2544 3.13069L42.3026 3.1046Z" fill="#0D5992"/>
</g>
<defs>
<clipPath id="clip0_201_135">
<rect width="141" height="28" fill="white"/>
</clipPath>
</defs>
</svg>
