<svg width="141" height="28" viewBox="0 0 141 28" fill="none" xmlns="http://www.w3.org/2000/svg">
<g clip-path="url(#clip0_10_2078)">
<path d="M60.1768 27.9998C59.2797 28.061 58.3819 27.893 57.5615 27.5106V24.6082C58.211 24.9397 58.9265 25.1073 59.65 25.0974C60.0324 25.103 60.4117 25.0246 60.7629 24.8673C61.1142 24.7099 61.4295 24.4772 61.6883 24.1843C62.4129 23.3527 62.9866 22.3915 63.3816 21.3471L57.066 6.3916H60.5907L64.937 17.1272L69.139 6.3916H72.5759L65.6771 23.3494C64.3809 26.454 62.5475 28.0042 60.1768 27.9998Z" fill="#0D5992"/>
<path d="M87.0008 21.393H73.9243V19.2211L81.9458 9.32038H74.4198V6.41797H86.499V8.68119L78.4776 18.5167H86.9694L87.0008 21.393Z" fill="#0D5992"/>
<path d="M95.6118 21.791C94.5622 21.8292 93.516 21.646 92.5363 21.2526C91.5565 20.8592 90.6635 20.2636 89.9109 19.5017C88.482 18.0145 87.6793 15.9982 87.6793 13.8958C87.6793 11.7935 88.482 9.77715 89.9109 8.28997C91.4656 6.81695 93.493 6.00049 95.5962 6.00049C97.6993 6.00049 99.7268 6.81695 101.281 8.28997C102.004 9.01143 102.575 9.88034 102.959 10.8422C103.343 11.8041 103.532 12.8381 103.514 13.8795C103.531 14.9255 103.341 15.9639 102.957 16.9309C102.573 17.8978 102.003 18.7727 101.281 19.5017C100.532 20.2586 99.6439 20.8513 98.67 21.2446C97.6961 21.6378 96.6561 21.8236 95.6118 21.791ZM95.6118 18.8886C96.2397 18.9022 96.8635 18.7819 97.4449 18.5352C98.0263 18.2884 98.5529 17.9203 98.9923 17.4537C99.8581 16.4878 100.34 15.2164 100.34 13.8958C100.34 12.5753 99.8581 11.3039 98.9923 10.338C98.4315 9.75461 97.7408 9.32434 96.9816 9.08535C96.2224 8.84636 95.4182 8.80605 94.6404 8.96801C93.8626 9.12997 93.1354 9.48918 92.5232 10.0137C91.911 10.5383 91.4329 11.212 91.1313 11.9749C90.8296 12.7378 90.7139 13.5664 90.7942 14.3871C90.8746 15.2077 91.1486 15.995 91.5919 16.6791C92.0352 17.3631 92.6341 17.9227 93.3354 18.3082C94.0367 18.6936 94.8187 18.893 95.6118 18.8886Z" fill="#0D5992"/>
<path d="M109.253 0.00634766V21.3928H106.079V0.00634766H109.253Z" fill="#0D5992"/>
<path d="M120.372 21.4123H117.494L111.028 6.41113H114.527L119.018 17.1598L123.458 6.41113H126.832L120.372 21.4123Z" fill="#0D5992"/>
<path d="M126.751 13.8793C126.718 12.8471 126.883 11.8183 127.236 10.8531C127.589 9.88782 128.123 9.00535 128.808 8.25709C129.497 7.51159 130.33 6.92537 131.252 6.53656C132.173 6.14776 133.164 5.96507 134.158 6.00039C135.507 5.96337 136.83 6.39227 137.921 7.22006C139.961 8.72887 140.979 10.9899 140.975 14.0032V14.8576H129.956C130.033 15.4499 130.228 16.019 130.528 16.5288C130.828 17.0385 131.227 17.4778 131.699 17.8187C132.789 18.5699 134.08 18.9442 135.387 18.8884C137.023 18.8938 138.629 18.4288 140.028 17.5448V20.3298C138.445 21.3759 136.589 21.8863 134.716 21.7908C132.633 21.8348 130.614 21.0483 129.071 19.5928C128.311 18.8711 127.71 17.9867 127.309 17.0004C126.908 16.0141 126.718 14.9494 126.751 13.8793ZM129.981 12.3531H137.795C137.778 11.8598 137.667 11.3751 137.468 10.9271C137.269 10.4791 136.986 10.077 136.635 9.74414C136.285 9.41132 135.874 9.15453 135.427 8.98879C134.98 8.82304 134.506 8.75168 134.032 8.77887C133.015 8.74141 132.022 9.10744 131.254 9.80286C130.527 10.4484 130.07 11.3631 129.981 12.3531Z" fill="#0D5992"/>
<path d="M28.6804 6.39832H7.40686L0 0H21.2673L28.6804 6.39832Z" fill="#0D5992"/>
<path d="M0 13.6447H21.2673L28.6804 6.39844H7.40686L0 13.6447Z" fill="#FF774C"/>
<path d="M28.6741 21.4712H7.40686L0 13.6445H21.2673L28.6741 21.4712Z" fill="#0D5992"/>
<path d="M42.3025 21.4388H39.0663V0.0131836H48.4739C50.5937 0.0131836 52.2536 0.574098 53.4536 1.69592C54.0498 2.24692 54.5223 2.92743 54.8377 3.68932C55.1531 4.45122 55.3036 5.27588 55.2787 6.10496C55.3285 7.48246 54.9053 8.83344 54.0848 9.91612C53.2644 10.9988 52.1002 11.7425 50.8007 12.0141L57.2793 21.4388H53.3658L47.1505 12.3794H42.3025V21.4388ZM42.3025 3.10472V9.43783H48.2544C49.2343 9.49771 50.2042 9.20523 51.0014 8.6095C51.3324 8.32382 51.5945 7.96144 51.7666 7.55142C51.9387 7.14139 52.016 6.69515 51.9923 6.24845C52.0115 5.81181 51.9318 5.37659 51.7597 4.97783C51.5876 4.57906 51.3278 4.2279 51.0014 3.95262C50.2034 3.35919 49.2336 3.06905 48.2544 3.13082L42.3025 3.10472Z" fill="#0D5992"/>
</g>
<defs>
<clipPath id="clip0_10_2078">
<rect width="141" height="28" fill="white"/>
</clipPath>
</defs>
</svg>
