<svg width="40" height="36" viewBox="0 0 40 36" fill="none" xmlns="http://www.w3.org/2000/svg">
<g clip-path="url(#clip0_25_15850)">
<path d="M4.29 0C3.72663 0 3.16877 0.110945 2.64828 0.326538C2.1278 0.542131 1.65487 0.858137 1.25651 1.2565C0.858145 1.65486 0.542146 2.1278 0.326553 2.64828C0.110961 3.16877 0 3.72664 0 4.29001V31.43C0 32.5678 0.451977 33.6589 1.25651 34.4635C2.06104 35.268 3.15222 35.72 4.29 35.72H35.67C36.8078 35.72 37.899 35.268 38.7035 34.4635C39.508 33.6589 39.96 32.5678 39.96 31.43V4.29001C39.96 3.72664 39.849 3.16877 39.6334 2.64828C39.4178 2.1278 39.1019 1.65486 38.7035 1.2565C38.3051 0.858137 37.8322 0.542131 37.3117 0.326538C36.7912 0.110945 36.2334 0 35.67 0H4.29ZM2.86 10V4.29001C2.86 3.91075 3.01066 3.54702 3.27884 3.27884C3.54702 3.01066 3.91074 2.85999 4.29 2.85999H35.67C36.0493 2.85999 36.413 3.01066 36.6812 3.27884C36.9493 3.54702 37.1 3.91075 37.1 4.29001V31.43C37.1 31.8093 36.9493 32.173 36.6812 32.4412C36.413 32.7093 36.0493 32.86 35.67 32.86H4.29C3.91074 32.86 3.54702 32.7093 3.27884 32.4412C3.01066 32.173 2.86 31.8093 2.86 31.43V10Z" fill="#0D5992"/>
<path d="M27.5601 10.7201L17.1401 21.1201L12.4401 16.4101C12.1646 16.2065 11.8253 16.1084 11.4837 16.1339C11.1421 16.1593 10.821 16.3066 10.5788 16.5488C10.3365 16.791 10.1893 17.1121 10.1639 17.4537C10.1384 17.7953 10.2364 18.1347 10.4401 18.4101L16.1501 24.1301C16.4185 24.3892 16.777 24.534 17.1501 24.534C17.5231 24.534 17.8817 24.3892 18.1501 24.1301L29.5801 12.7001C29.7837 12.4247 29.8818 12.0853 29.8563 11.7437C29.8309 11.4021 29.6836 11.081 29.4414 10.8388C29.1992 10.5965 28.8781 10.4493 28.5365 10.4239C28.1949 10.3984 27.8555 10.4964 27.5801 10.7001L27.5601 10.7201Z" fill="#FF774C"/>
</g>
<defs>
<clipPath id="clip0_25_15850">
<rect width="40" height="35.71" fill="white"/>
</clipPath>
</defs>
</svg>
