<svg width="43" height="42" viewBox="0 0 43 42" fill="none" xmlns="http://www.w3.org/2000/svg">
<path d="M21.1422 0.335445C21.2505 -0.0102034 21.7558 0.00161513 21.8477 0.351944L24.9288 12.0919C25.5635 14.5102 27.4425 16.4323 29.8874 17.1642L41.7568 20.7174C42.111 20.8234 42.0995 21.3167 41.7407 21.4061L29.7182 24.4007C27.2418 25.0175 25.2749 26.8497 24.528 29.2356L20.9015 40.8188C20.7933 41.1644 20.288 41.1526 20.196 40.8023L17.1149 29.0623C16.4803 26.644 14.6012 24.7219 12.1564 23.99L0.286922 20.4368C-0.0672698 20.3308 -0.0557326 19.8375 0.303028 19.7481L12.3256 16.7535C14.802 16.1367 16.7688 14.3045 17.5158 11.9186L21.1422 0.335445Z" fill="#130F00"/>
</svg>
