<svg width="24" height="24" viewBox="0 0 24 24" fill="none" xmlns="http://www.w3.org/2000/svg">
<path d="M11.8074 0.685878C11.8621 0.49129 12.1379 0.491291 12.1926 0.685879L14.0233 7.2068C14.4003 8.54999 15.45 9.59965 16.7932 9.97674L23.3141 11.8074C23.5087 11.8621 23.5087 12.1379 23.3141 12.1926L16.7932 14.0233C15.45 14.4003 14.4003 15.45 14.0233 16.7932L12.1926 23.3141C12.1379 23.5087 11.8621 23.5087 11.8074 23.3141L9.97674 16.7932C9.59965 15.45 8.54998 14.4003 7.2068 14.0233L0.685878 12.1926C0.49129 12.1379 0.491291 11.8621 0.685879 11.8074L7.2068 9.97674C8.54999 9.59965 9.59965 8.54998 9.97674 7.2068L11.8074 0.685878Z" fill="#FDC71A"/>
</svg>
