<svg width="18" height="18" viewBox="0 0 18 18" fill="none" xmlns="http://www.w3.org/2000/svg">
<path opacity="0.3" d="M8.84878 0.114613C8.89168 -0.0382048 9.10832 -0.0382039 9.15122 0.114613L10.5889 5.23573C10.8851 6.29058 11.7094 7.11492 12.7643 7.41106L17.8854 8.84878C18.0382 8.89168 18.0382 9.10832 17.8854 9.15122L12.7643 10.5889C11.7094 10.8851 10.8851 11.7094 10.5889 12.7643L9.15122 17.8854C9.10832 18.0382 8.89168 18.0382 8.84878 17.8854L7.41106 12.7643C7.11492 11.7094 6.29058 10.8851 5.23573 10.5889L0.114613 9.15122C-0.0382048 9.10832 -0.0382039 8.89168 0.114613 8.84878L5.23573 7.41106C6.29058 7.11492 7.11492 6.29058 7.41106 5.23573L8.84878 0.114613Z" fill="white"/>
</svg>
