<svg width="26" height="26" viewBox="0 0 26 26" fill="none" xmlns="http://www.w3.org/2000/svg">
<path d="M12.8074 0.685879C12.8621 0.49129 13.1379 0.491291 13.1926 0.685879L15.2425 7.9876C15.6195 9.33078 16.6692 10.3805 18.0124 10.7575L25.3141 12.8074C25.5087 12.8621 25.5087 13.1379 25.3141 13.1926L18.0124 15.2425C16.6692 15.6195 15.6195 16.6692 15.2425 18.0124L13.1926 25.3141C13.1379 25.5087 12.8621 25.5087 12.8074 25.3141L10.7575 18.0124C10.3805 16.6692 9.33078 15.6195 7.9876 15.2425L0.685879 13.1926C0.49129 13.1379 0.491291 12.8621 0.685879 12.8074L7.9876 10.7575C9.33078 10.3805 10.3805 9.33078 10.7575 7.9876L12.8074 0.685879Z" fill="white"/>
</svg>
