<svg width="39" height="27" viewBox="0 0 39 27" fill="none" xmlns="http://www.w3.org/2000/svg">
<path fill-rule="evenodd" clip-rule="evenodd" d="M8.63967 3.08179C8.86742 3.70763 9.69676 3.87247 10.2022 3.43206C12.5134 1.41828 15.5319 0.199219 18.8343 0.199219C24.3173 0.199219 29.0174 3.55962 30.9976 8.33833C31.5195 9.59771 31.8932 10.915 32.4156 12.1741L38.4 26.5992H30.8093L29.3779 23.3205C29.1158 22.7204 28.2995 22.5978 27.819 23.0478C25.4664 25.2509 22.3074 26.5992 18.8343 26.5992C12.9661 26.5992 7.99459 22.75 6.29451 17.4326L0 0.199219H7.5907L8.63967 3.08179ZM19.3829 19.9992C23.0185 19.9992 25.9657 17.0443 25.9657 13.3992C25.9657 9.75413 23.0185 6.79922 19.3829 6.79922C15.7472 6.79922 12.8 9.75413 12.8 13.3992C12.8 17.0443 15.7472 19.9992 19.3829 19.9992Z" fill="black"/>
</svg>
