<svg width="81" height="64" viewBox="0 0 81 64" fill="none" xmlns="http://www.w3.org/2000/svg">
<path d="M13.1866 5.1508C13.9989 1.88725 10.3433 2.70314 6.68771 3.11108C1.0013 3.51894 1.40738 9.23052 1.00121 15.7576C0.595027 22.2847 -4.27912 47.5772 21.7163 58.5917C47.7118 69.6062 61.928 60.2235 68.4269 51.2487C74.9258 42.2739 78.9876 23.1006 79.7999 17.3894C80.6123 11.6782 81.0185 11.2702 77.769 10.8623C74.5196 10.4544 70.864 9.63846 68.8331 9.23052C66.8022 8.82258 66.8022 7.59875 65.5837 10.8623C64.3651 14.1258 62.3342 27.18 59.8972 35.7469C59.8972 30.8515 59.8972 14.9417 60.3033 10.8623C60.7095 6.78286 56.2415 5.96697 53.8045 5.15108C51.3674 4.3352 50.9612 3.11137 50.555 5.96697C50.1489 8.82258 47.7118 17.7973 46.8994 27.588C46.0871 37.3786 46.0871 36.1548 44.0562 31.6674C42.0253 27.18 42.0253 7.59875 42.0253 4.3352C42.0253 1.07165 39.182 1.07145 35.9326 0.255561C32.6832 -0.560326 32.6832 0.663505 32.6832 2.70322C32.6832 4.74294 31.4646 9.63826 30.2461 13.3098C29.0276 16.9812 27.4028 23.5083 27.4028 26.364C25.3719 22.6925 25.7781 7.59855 25.7781 3.51911C25.7781 -0.560326 21.3102 0.663505 18.4669 0.663505C15.6236 0.663505 16.436 3.51911 16.436 6.78266C16.436 10.0462 15.6236 16.9812 15.2175 25.5481C13.5928 22.6925 13.9989 18.613 13.1866 14.9415C12.3742 11.27 12.3742 8.41435 13.1866 5.1508Z" fill="#227800"/>
</svg>
