<svg width="131" height="68" viewBox="0 0 131 68" fill="none" xmlns="http://www.w3.org/2000/svg">
<path d="M0.874168 21.0294C2.47981 20.0407 5.35827 20.7595 4.02699 31.5441C2.3629 45.0249 6.78822 50.1888 17.7391 32.2354C28.69 14.2819 32.0239 8.90738 36.8171 3.87994C41.6103 -1.14749 50.2031 -2.70163 43.9088 19.443C37.6146 41.5876 32.756 62.0178 47.5064 47.5376C62.2568 33.0574 72.9318 22.7475 69.3011 44.4976C65.6704 66.2477 74.3314 60.0843 86.4894 52.1828C98.6474 44.2813 101.103 46.9212 99.4154 58.3405C97.7276 69.7598 106.205 68.6921 113.753 60.7224C121.302 52.7527 127.463 50.6201 130.01 50.7121" stroke="#FDC71A"/>
</svg>
