<svg width="96" height="100" viewBox="0 0 96 100" fill="none" xmlns="http://www.w3.org/2000/svg">
<path d="M55.0844 94.326C56.1476 99.1105 56.1476 99.6421 54.5528 99.6421H43.9205C38.6043 99.6416 37.0094 99.11 37.0094 95.9203C37.0094 92.7306 37.0094 92.199 34.8829 81.5667C32.7565 70.9344 30.63 71.9976 16.2764 65.6182C1.92274 59.2388 1.39111 36.3793 0.327873 27.3418C-0.73536 18.3044 1.3911 16.7095 9.36535 22.0257C17.3396 27.3418 18.4028 32.1264 22.6558 37.9742C26.9087 43.8219 25.8455 37.9742 24.7823 28.9367C23.719 19.8992 27.4404 10.8618 28.5036 5.014C29.5668 -0.833776 31.1617 -0.302159 32.2249 2.35592C33.2881 5.014 36.4778 10.8618 42.3256 17.2412C47.0038 22.3447 48.5278 34.6073 48.705 40.1007H49.7682C50.2999 27.8735 58.2741 11.925 61.4638 6.07726C64.6535 0.229484 64.1219 2.35595 65.7167 11.3934C66.9926 18.6234 67.666 32.4809 67.8432 38.5059C69.9697 36.2023 76.4554 29.4688 85.3865 20.9629C96.5505 10.3306 98.1453 16.71 91.7659 36.3798C85.3865 56.0496 67.3116 65.0871 61.9954 68.2768C56.6792 71.4665 56.1476 71.4665 55.616 74.1245C55.0844 76.7826 54.0212 89.5414 55.0844 94.326Z" fill="#F7A102"/>
</svg>
